<?xml version="1.0" encoding="UTF-8" standalone="no"?>
<!DOCTYPE svg PUBLIC "-//W3C//DTD SVG 1.1//EN" "http://www.w3.org/Graphics/SVG/1.1/DTD/svg11.dtd">
<svg width="100%" height="100%" viewBox="0 0 100 100" version="1.1" xmlns="http://www.w3.org/2000/svg" xmlns:xlink="http://www.w3.org/1999/xlink" xml:space="preserve" style="fill-rule:evenodd;clip-rule:evenodd;stroke-linejoin:round;stroke-miterlimit:1.41421;">
    <path d="M5,6L5,94L95,94L95,28L95,6L5,6ZM92,91L8,91L8,28L92,28L92,91ZM23.5,16.9C23.5,18.6 22.1,20 20.4,20C18.7,20 17.3,18.6 17.3,16.9C17.3,15.2 18.7,13.8 20.4,13.8C22.1,13.8 23.5,15.2 23.5,16.9ZM82.5,16.9C82.5,18.6 81.1,20 79.4,20C77.7,20 76.3,18.6 76.3,16.9C76.3,15.2 77.7,13.8 79.4,13.8C81.1,13.8 82.5,15.2 82.5,16.9Z" style="fill:rgb(198,62,81);fill-rule:nonzero;"/>
    <g transform="matrix(0.756534,0,0,1,3.26548,-1.55846)">
        <rect x="12.87" y="34.041" width="20.813" height="14.985" style="fill:rgb(198,62,81);fill-opacity:0.25098;"/>
    </g>
    <g transform="matrix(0.756534,0,0,1,3.26548,16.9587)">
        <rect x="12.87" y="34.041" width="20.813" height="14.985" style="fill:rgb(198,62,81);fill-opacity:0.25098;"/>
    </g>
    <g transform="matrix(0.756534,0,0,1,3.26548,34.9512)">
        <rect x="12.87" y="34.041" width="20.813" height="14.985" style="fill:rgb(198,62,81);fill-opacity:0.25098;"/>
    </g>
    <g transform="matrix(0.756534,0,0,1,41.92,-1.55846)">
        <rect x="12.87" y="34.041" width="20.813" height="14.985" style="fill:rgb(198,62,81);fill-opacity:0.25098;"/>
    </g>
    <g transform="matrix(0.756534,0,0,1,41.92,16.9587)">
        <rect x="12.87" y="34.041" width="20.813" height="14.985" style="fill:rgb(198,62,81);fill-opacity:0.25098;"/>
    </g>
    <g transform="matrix(0.756534,0,0,1,41.92,34.9512)">
        <rect x="12.87" y="34.041" width="20.813" height="14.985" style="fill:rgb(198,62,81);fill-opacity:0.25098;"/>
    </g>
    <g transform="matrix(0.756534,0,0,1,22.5927,-1.55846)">
        <rect x="12.87" y="34.041" width="20.813" height="14.985" style="fill:rgb(198,62,81);fill-opacity:0.25098;"/>
    </g>
    <g transform="matrix(0.756534,0,0,1,22.5927,16.9587)">
        <rect x="12.87" y="34.041" width="20.813" height="14.985" style="fill:rgb(198,62,81);fill-opacity:0.25098;"/>
    </g>
    <g transform="matrix(0.756534,0,0,1,22.5927,34.9512)">
        <rect x="12.87" y="34.041" width="20.813" height="14.985" style="fill:rgb(198,62,81);fill-opacity:0.25098;"/>
    </g>
    <g transform="matrix(0.756534,0,0,1,61.2472,-1.55846)">
        <rect x="12.87" y="34.041" width="20.813" height="14.985" style="fill:rgb(198,62,81);fill-opacity:0.25098;"/>
    </g>
    <g transform="matrix(0.756534,0,0,1,61.2472,16.9587)">
        <rect x="12.87" y="34.041" width="20.813" height="14.985" style="fill:rgb(198,62,81);fill-opacity:0.25098;"/>
    </g>
</svg>
