<?xml version="1.0" encoding="UTF-8" standalone="no"?>
<!DOCTYPE svg PUBLIC "-//W3C//DTD SVG 1.1//EN" "http://www.w3.org/Graphics/SVG/1.1/DTD/svg11.dtd">
<svg width="100%" height="100%" viewBox="0 0 256 256" version="1.1" xmlns="http://www.w3.org/2000/svg" xmlns:xlink="http://www.w3.org/1999/xlink" xml:space="preserve" style="fill-rule:evenodd;clip-rule:evenodd;stroke-linejoin:round;stroke-miterlimit:1.41421;">
    <g transform="matrix(0.959182,0,0,0.959182,-609.611,-107.959)">
        <path d="M887.717,112.553L650.283,112.553C642.146,112.553 635.553,119.146 635.553,127.283L635.553,364.717C635.553,372.852 642.146,379.447 650.283,379.447L778.109,379.447L778.109,276.092L743.328,276.092L743.328,235.812L778.109,235.812L778.109,206.107C778.109,171.634 799.164,152.863 829.916,152.863C844.646,152.863 857.307,153.96 860.996,154.45L860.996,190.476L839.668,190.486C822.943,190.486 819.705,198.433 819.705,210.095L819.705,235.812L859.592,235.812L854.398,276.092L819.705,276.092L819.705,379.447L887.717,379.447C895.852,379.447 902.447,372.852 902.447,364.717L902.447,127.283C902.447,119.146 895.852,112.553 887.717,112.553Z" style="fill:white;fill-rule:nonzero;"/>
    </g>
</svg>
